inDegrees=no
num_controls=7
num_derivatives=13
num_iterations=101
num_multipliers=7
num_parameters=0
num_slacks=7
num_states=26
objective=5.033323
objective_accelerations=0.472465
objective_balance=0.031207
objective_effort=0.287316
objective_height=4.136920
objective_ligament=0.105415
solver_duration=1131.949305
status=Solve_Succeeded
success=true
DataType=double
version=3
OpenSimVersion=4.4-2022-07-23-0e9fedc
endheader
time	/jointset/ground_pelvis/pelvis_tilt/value	/jointset/ground_pelvis/pelvis_tx/value	/jointset/ground_pelvis/pelvis_ty/value	/jointset/hip_l/hip_flexion_l/value	/jointset/hip_l/hip_adduction_l/value	/jointset/hip_l/hip_rotation_l/value	/jointset/back/lumbar_extension/value	/jointset/patellofemoral_l/patellar_flexion_l/value	/jointset/knee_l/knee_flexion_l/value	/jointset/knee_l/knee_adduction_l/value	/jointset/knee_l/knee_rotation_l/value	/jointset/ankle_l/ankle_angle_l/value	/jointset/subtalar_l/subtalar_angle_l/value	/jointset/ground_pelvis/pelvis_tilt/speed	/jointset/ground_pelvis/pelvis_tx/speed	/jointset/ground_pelvis/pelvis_ty/speed	/jointset/hip_l/hip_flexion_l/speed	/jointset/hip_l/hip_adduction_l/speed	/jointset/hip_l/hip_rotation_l/speed	/jointset/back/lumbar_extension/speed	/jointset/patellofemoral_l/patellar_flexion_l/speed	/jointset/knee_l/knee_flexion_l/speed	/jointset/knee_l/knee_adduction_l/speed	/jointset/knee_l/knee_rotation_l/speed	/jointset/ankle_l/ankle_angle_l/speed	/jointset/subtalar_l/subtalar_angle_l/speed	/forceset/tau_hip_flexion_l	/forceset/tau_hip_adduction_l	/forceset/tau_hip_rotation_l	/forceset/tau_knee_flexion_l	/forceset/tau_ankle_angle_l	/forceset/tau_subtalar_angle_l	/forceset/tau_lumbar_extension	lambda_cid13_p0	lambda_cid13_p1	lambda_cid13_p2	lambda_cid13_p3	lambda_cid13_p4	lambda_cid13_p5	lambda_cid14_p0	/jointset/ground_pelvis/pelvis_tilt/accel	/jointset/ground_pelvis/pelvis_tx/accel	/jointset/ground_pelvis/pelvis_ty/accel	/jointset/hip_l/hip_flexion_l/accel	/jointset/hip_l/hip_adduction_l/accel	/jointset/hip_l/hip_rotation_l/accel	/jointset/back/lumbar_extension/accel	/jointset/patellofemoral_l/patellar_flexion_l/accel	/jointset/knee_l/knee_flexion_l/accel	/jointset/knee_l/knee_adduction_l/accel	/jointset/knee_l/knee_rotation_l/accel	/jointset/ankle_l/ankle_angle_l/accel	/jointset/subtalar_l/subtalar_angle_l/accel	gamma_cid13_p0	gamma_cid13_p1	gamma_cid13_p2	gamma_cid13_p3	gamma_cid13_p4	gamma_cid13_p5	gamma_cid14_p0
0.5	-0.4081981635346615	-0.08344744938576711	0.7855646581411913	1.058512036981358	-0.4162096547839967	-0.3316229435075579	-0.2540101195410158	0.5428265867578733	0.542826586757873	-0.1681808829169653	-0.1717019316774642	-0.08166736044394103	-0.1046935061021908	-0.9785379257996958	-0.3534154982435367	-0.4090244399683541	2.340234658243191	-0.2090689964734937	0.5320922256114159	-0.1177227108692408	1.275832642861912	1.275832642861912	0.01004330787265778	-0.02882923960116605	-0.02040549518166013	-0.2303963719986396	-0.1997800985909376	0.01245058436965524	-0.007469749431186379	-0.1608408779666584	0.1219825865113364	0.05475211012542595	0.186679435814487	4.769969859562359	-27.52119724369665	7.372400157864147	-7.715335353909476	-528.4540593409019	-66.83342591724023	-37.04278512285243	0.7028028756290293	0.5988547699813888	-0.2549372887459007	-1.429398944195962	0.4431130129773033	-0.07429248345929589	1.072765605850376	-0.827372806090594	-0.827372806090594	-0.0149327369100509	0.2012307772912224	0.07845225206975157	0.5190497918916792	2.735705788384241e-08	-4.443892122298589e-07	-5.449495065691007e-08	-1.630509771689224e-07	-9.164847051310504e-08	1.302285432367857e-07	-7.242445226044004e-08
0.51	-0.4179463679890458	-0.08695123496523594	0.7814625197460101	1.081838861658455	-0.418278451135466	-0.326307397613981	-0.2551347469598128	0.5555420339451801	0.5555420339451795	-0.1680818187994203	-0.1719813464488916	-0.08186760355158083	-0.1069718506089805	-0.9709625184101053	-0.3473052646516205	-0.4113187145365198	2.324810502204094	-0.2046689835817519	0.5309475315202371	-0.1072447226212715	1.26708600002181	1.267086000021811	0.009769094683446278	-0.02705449700853093	-0.01964994368405485	-0.2252560850028351	-0.2060101685958851	0.01344480291228222	-0.007279435634574493	-0.1622471588596248	0.1237931609199908	0.05590812901546328	0.191273003056021	5.167146565484033	-28.02434118342363	7.374419769155929	-8.051778652239548	-531.3604815302356	-66.49452355135132	-36.60604315143945	0.8059849256857743	0.6225281481459686	-0.204011172536454	-1.646882253072081	0.44172423128338	-0.1450263215160017	1.02902297460118	-0.9239148791653385	-0.9239148791652766	-0.03381686485547411	0.1655023879731068	0.07308211913753528	0.5140597805410856	2.730074697569576e-08	-4.284237803269193e-07	-6.221005205641561e-08	-1.607700809847864e-07	-8.167206205007716e-08	1.32247229721083e-07	-7.031623977911385e-08
0.52	-0.4276146033185218	-0.09039283410991575	0.7773399708788105	1.1050018531113	-0.4203025915972158	-0.3210053923512297	-0.2561558529880639	0.5681648937328467	0.5681648937328458	-0.1679855270647532	-0.1722430325168479	-0.08206049604013825	-0.1091982839203888	-0.9625441008180459	-0.3409782112857354	-0.4131065343720673	2.307468013392775	-0.2001378185295799	0.5293840994463048	-0.09701843276006358	1.25731516293389	1.257315162933891	0.009488831297083826	-0.02528349890695784	-0.01893537136518479	-0.2200141329223803	-0.2122402386008326	0.01443902145490916	-0.007089121837962314	-0.1636534397525914	0.1256037353286452	0.05706414790550055	0.195866570297555	5.555117524473043	-28.52652804058	7.377034689938811	-8.364710997131256	-534.3988258203948	-66.17967594073569	-36.15360935971147	0.871404916122811	0.6422187247751379	-0.1536463422222327	-1.813065498640364	0.4693434450633266	-0.158040080010018	1.022425928498071	-1.032211655654477	-1.032211655654477	-0.01614277634024093	0.2004818790788149	0.07025641632270831	0.5393828088217524	2.7638823086112e-08	-4.120559310675052e-07	-7.255070923252195e-08	-1.577250607445787e-07	-7.180263203315365e-08	1.334814150690595e-07	-6.761697241784e-08
0.53	-0.4371945883161307	-0.0937701674751098	0.7732020766225264	1.127982136882554	-0.4222807406960454	-0.3157211565705412	-0.257076029906359	0.5806850441790242	0.5806850441790233	-0.1678918579749721	-0.1724870574014835	-0.08224645247928578	-0.1113717650465987	-0.9533173069480299	-0.3344600548457768	-0.4143867506408131	2.288284568292335	-0.1954707538217012	0.5273865100763491	-0.08707636724101435	1.246553588877955	1.246553588877955	0.009257268806691334	-0.02352768025564482	-0.01826357146683191	-0.2146659647690742	-0.2183369817968273	0.01524433524646716	-0.00690952628627302	-0.1649690143785113	0.1272602489476125	0.05824272966353239	0.2003031377006673	5.901247143200814	-29.02937354621355	7.377682285560057	-8.616047066780219	-537.3020036972541	-65.90297505448434	-35.68751565144226	0.9686630604269199	0.6608439145695183	-0.1023876563496211	-2.016602309944787	0.4686570934224198	-0.2321502951595548	0.9711844122978035	-1.122317654275071	-1.122317654275229	-0.02490480906412868	0.1622191170675821	0.06449097462895019	0.5350252291127555	3.051196650238263e-08	-3.968663906504011e-07	-9.150415469711846e-08	-1.564266512283038e-07	-6.015824885004547e-08	1.325857552820025e-07	-6.350865917991641e-08
0.54	-0.4466782360874423	-0.09708147331371159	0.7690539445261252	1.150761462543963	-0.4242115653258416	-0.3104592030694864	-0.2578985686597257	0.5930927414098999	0.593092741409899	-0.16780015287483	-0.1727137066478239	-0.0824259210798423	-0.11349126620917	-0.9432766555585764	-0.3277727059672864	-0.4151541023955143	2.267276391423942	-0.1906729247229301	0.5249276435195454	-0.07749079977438696	1.234824519873537	1.234824519873536	0.009096033369283836	-0.0218083712479303	-0.01763780364698458	-0.2092181401946595	-0.2244337249928221	0.01604964903802509	-0.006729930734583457	-0.1662845890044312	0.1289167625665798	0.05942131142156417	0.2047397051037795	6.238548001057284	-29.53125872096033	7.378845555669156	-8.847121425620807	-540.3345237370301	-65.64975006936034	-35.20980165697926	1.03417642001033	0.6760572124815128	-0.05107343941331006	-2.178011852230453	0.4954963232419236	-0.2502955173796126	0.9511263180137047	-1.225710645351131	-1.225710645351131	-0.002077365743244294	0.1931799503591168	0.06105000062155274	0.5593140930434819	3.618986523576878e-08	-3.82980511080108e-07	-1.199866425234489e-07	-1.570606620874441e-07	-4.655008769583934e-08	1.293336710902275e-07	-5.784140156782715e-08
